<?xml version="1.0" ?><svg id="Layer_1" style="enable-background:new 0 0 96 96;" version="1.1" viewBox="0 0 96 96" xml:space="preserve" xmlns="http://www.w3.org/2000/svg" xmlns:xlink="http://www.w3.org/1999/xlink"><style type="text/css">
	.st0{fill:none;stroke:#010000;stroke-width:4;stroke-linecap:round;stroke-miterlimit:10;}
	.st1{fill:none;stroke:#010000;stroke-width:4;stroke-linecap:round;stroke-linejoin:round;stroke-miterlimit:10;}
	.st2{fill:none;stroke:#010000;stroke-width:4;stroke-linejoin:round;stroke-miterlimit:10;}
	.st3{fill:none;stroke:#010000;stroke-width:6;stroke-linecap:round;stroke-linejoin:round;stroke-miterlimit:10;}
	.st4{fill:#010000;}
	.st5{fill:none;stroke:#010000;stroke-width:3.8974;stroke-linejoin:round;stroke-miterlimit:10;}
	.st6{fill:none;stroke:#010000;stroke-width:2;stroke-linecap:round;stroke-linejoin:round;stroke-miterlimit:10;}
	.st7{fill:#010000;stroke:#010000;stroke-width:2;stroke-miterlimit:10;}
	.st8{opacity:0.75;}
	.st9{fill:none;stroke:#010000;stroke-width:2;stroke-linejoin:round;stroke-miterlimit:10;}
	.st10{fill:none;stroke:#010000;stroke-width:6;stroke-linejoin:round;stroke-miterlimit:10;}
	.st11{fill:none;stroke:#010000;stroke-width:3;stroke-linejoin:round;stroke-miterlimit:10;}
	.st12{fill:none;stroke:#010000;stroke-width:3.9497;stroke-linejoin:round;stroke-miterlimit:10;}
	.st13{fill:none;stroke:#010000;stroke-width:1.9008;stroke-linejoin:round;stroke-miterlimit:10;}
	.st14{fill:none;stroke:#010000;stroke-width:1.9935;stroke-linejoin:round;stroke-miterlimit:10;}
	.st15{fill:none;stroke:#010000;stroke-width:4;stroke-miterlimit:10;}
	.st16{fill:none;stroke:#010000;stroke-width:1.9048;stroke-linecap:round;stroke-linejoin:round;stroke-miterlimit:10;}
	.st17{fill:none;stroke:#010000;stroke-width:1.934;stroke-linecap:round;stroke-linejoin:round;stroke-miterlimit:10;}
	.st18{fill:none;stroke:#010000;stroke-width:1.9684;stroke-linecap:round;stroke-linejoin:round;stroke-miterlimit:10;}
	.st19{fill:none;stroke:#010000;stroke-width:1.9343;stroke-linecap:round;stroke-linejoin:round;stroke-miterlimit:10;}
</style><path class="st2" d="M57,6H22.8C20.4,6,18,8.2,18,10.6v77.2c0,2.4,2.4,4.2,4.8,4.2h51.9c2.4,0,4.3-1.8,4.3-4.2V30"/><g><path class="st1" d="M81.2,27c2.3,0,2.9-1.2,1.2-2.9L63.1,4.9c-1.6-1.6-3.1-1-3.1,1.3V23c0,2.3,2.1,4,4.5,4H81.2z"/></g><line class="st1" x1="27" x2="51" y1="18" y2="18"/><line class="st1" x1="26" x2="46" y1="35" y2="35"/><line class="st1" x1="52" x2="71" y1="35" y2="35"/><line class="st1" x1="26" x2="56" y1="41" y2="41"/><line class="st1" x1="62" x2="71" y1="41" y2="41"/><line class="st1" x1="26" x2="46" y1="47" y2="47"/><line class="st1" x1="52" x2="71" y1="47" y2="47"/><line class="st1" x1="26" x2="56" y1="53" y2="53"/><line class="st1" x1="62" x2="71" y1="53" y2="53"/><g><path class="st4" d="M26,78.6c0-0.7,0.2-1.2,0.5-1.5c0.4-0.3,0.9-0.5,1.5-0.5c0.7,0,1.2,0.2,1.5,0.5c0.4,0.3,0.5,0.8,0.5,1.5   c0,0.6-0.2,1.1-0.5,1.5c-0.4,0.4-0.9,0.5-1.5,0.5c-0.7,0-1.2-0.2-1.5-0.5C26.2,79.7,26,79.2,26,78.6z"/><path class="st4" d="M44.2,81l-1-4.4L41.8,71h-0.1l-2.4,10h-3.9l-3.7-14h3.6l1.5,5.8c0.2,1,0.5,3.2,0.7,4.2h0.1   c0,0,0.2-1.4,0.4-2.7l0.2-1l1.6-6.3h4l1.5,6.4c0,0.2,0.1,0.5,0.1,0.8c0.1,0.3,0.1,0.7,0.2,1.1c0.1,0.4,0.1,0.6,0.2,1   c0.1,0.4,0.1,0.7,0.1,0.7H46c0.1,0,0.2-1.2,0.4-2.2c0.2-1,0.3-1.7,0.4-2l1.6-5.8h3.5l-3.8,14H44.2z"/><path class="st4" d="M61.3,66.9c0.5,0,0.9,0,1.2,0.1l-0.3,3.4c-0.3-0.1-0.6-0.1-1.1-0.1c-1.1,0-2.3,0.3-3,0.9   c-0.6,0.6-1.2,1.4-1.2,2.5V81h-3V67h2.7l0.5,2h0.2c0.4,0,1-1.2,1.7-1.6C59.8,66.9,60.5,66.9,61.3,66.9z"/><path class="st4" d="M69,81h-3V62h3V81z"/></g></svg>