<?xml version="1.0" encoding="UTF-8" standalone="no"?>
<!-- Created with Inkscape (http://www.inkscape.org/) -->

<svg
   width="42.484898mm"
   height="18.392637mm"
   viewBox="0 0 42.484898 18.392637"
   version="1.1"
   id="svg5"
   inkscape:version="1.2.1 (9c6d41e410, 2022-07-14, custom)"
   sodipodi:docname="logo.svg"
   xmlns:inkscape="http://www.inkscape.org/namespaces/inkscape"
   xmlns:sodipodi="http://sodipodi.sourceforge.net/DTD/sodipodi-0.dtd"
   xmlns="http://www.w3.org/2000/svg"
   xmlns:svg="http://www.w3.org/2000/svg">
  <sodipodi:namedview
     id="namedview7"
     pagecolor="#ffffff"
     bordercolor="#666666"
     borderopacity="1.0"
     inkscape:showpageshadow="2"
     inkscape:pageopacity="0.0"
     inkscape:pagecheckerboard="0"
     inkscape:deskcolor="#d1d1d1"
     inkscape:document-units="mm"
     showgrid="false"
     inkscape:zoom="7.9999999"
     inkscape:cx="92.312501"
     inkscape:cy="46.625"
     inkscape:window-width="1920"
     inkscape:window-height="1051"
     inkscape:window-x="0"
     inkscape:window-y="0"
     inkscape:window-maximized="1"
     inkscape:current-layer="text113" />
  <defs
     id="defs2" />
  <g
     inkscape:label="Layer 1"
     id="layer1"
     inkscape:groupmode="layer"
     transform="translate(-27.107453,-23.489701)">
    <g
       aria-label="Printer_Share"
       id="text113"
       style="font-size:12.2048px;line-height:1.25;stroke-width:0.305121;stroke:#FFBE52;fill:#FFBE52"
       inkscape:groupmode="layer">
      <path
         d="m 29.41416,23.770411 q 1.708672,0 2.48978,0.671264 0.781107,0.671264 0.781107,1.891744 0,0.720083 -0.32953,1.354733 -0.317325,0.622445 -1.086227,1.012998 -0.756698,0.390554 -2.062611,0.390554 h -1.000794 v 3.392934 h -1.098432 v -8.714227 z m -0.09764,0.93977 h -1.110637 v 3.441753 h 0.878746 q 1.244889,0 1.855129,-0.402758 0.61024,-0.402758 0.61024,-1.366938 0,-0.842131 -0.537011,-1.257094 -0.537011,-0.414963 -1.696467,-0.414963 z"
         id="path273" />
      <path
         d="m 39.934694,23.489701 q 0.244096,0 0.427168,0.170867 0.195277,0.158662 0.195277,0.512602 0,0.341734 -0.195277,0.512601 -0.183072,0.170867 -0.427168,0.170867 -0.268505,0 -0.451577,-0.170867 -0.183072,-0.170867 -0.183072,-0.512601 0,-0.35394 0.183072,-0.512602 0.183072,-0.170867 0.451577,-0.170867 z m 0.524806,2.453165 v 6.541772 h -1.074022 v -6.541772 z"
         id="path277" />
      <path
         d="m 45.683147,25.820818 q 1.171661,0 1.769696,0.573625 0.598035,0.561421 0.598035,1.83072 v 4.259475 H 46.98906 v -4.186246 q 0,-1.574419 -1.464576,-1.574419 -1.086227,0 -1.50119,0.61024 -0.414963,0.61024 -0.414963,1.757491 v 3.392934 h -1.074022 v -6.541772 h 0.86654 l 0.158663,0.89095 h 0.06102 q 0.317324,-0.512602 0.878745,-0.756698 0.561421,-0.2563 1.183866,-0.2563 z"
         id="path279" />
      <path
         d="m 52.261534,31.727941 q 0.244096,0 0.500397,-0.03662 0.256301,-0.04882 0.414963,-0.09764 v 0.817721 q -0.170867,0.08543 -0.488192,0.134253 -0.317325,0.06102 -0.61024,0.06102 -0.512602,0 -0.951974,-0.170867 Q 50.69932,32.252736 50.430814,31.813363 50.162308,31.37399 50.162308,30.580678 V 26.772792 H 49.234744 V 26.26019 l 0.939769,-0.427168 0.427168,-1.391347 h 0.63465 v 1.501191 h 1.891744 v 0.829926 h -1.891744 v 3.783488 q 0,0.598035 0.28071,0.89095 0.292915,0.280711 0.744493,0.280711 z"
         id="path281" />
      <path
         d="m 59.661748,25.820818 q 1.614391,0 2.760842,0.860044 1.169849,0.860043 1.778171,2.43679 0.631717,1.548079 0.631717,3.640852 v 1.519412 h -8.586689 q 0.04679,2.608798 1.076261,3.984869 1.052864,1.347401 2.924622,1.347401 1.193246,0 2.105728,-0.258012 0.935879,-0.286682 1.918551,-0.802707 v 2.207444 q -0.959276,0.516028 -1.895155,0.745372 -0.935878,0.258013 -2.222711,0.258013 -1.778171,0 -3.158592,-0.888713 -1.357026,-0.88871 -2.129125,-2.637466 -0.748704,-1.777425 -0.748704,-4.328889 0,-2.522794 0.678512,-4.328887 0.701909,-1.806092 1.94195,-2.780807 1.263436,-0.974716 2.924622,-0.974716 z m -0.02341,2.064104 q -1.474009,0 -2.339698,1.175393 -0.842291,1.146726 -1.006069,3.210831 h 6.387374 q -0.02341,-1.949433 -0.748704,-3.153494 -0.725305,-1.23273 -2.292903,-1.23273 z"
         id="path283"
         style="stroke-width:0.647473" />
      <path
         d="m 68.823448,25.820815 q 0.183072,0 0.390554,0.02441 0.219686,0.0122 0.378349,0.04882 l -0.134253,0.988589 q -0.158663,-0.03661 -0.353939,-0.06102 -0.183072,-0.02441 -0.35394,-0.02441 -0.500396,0 -0.939769,0.28071 -0.439373,0.268506 -0.707878,0.768902 -0.256301,0.488192 -0.256301,1.147252 v 3.490572 h -1.074023 v -6.541772 h 0.878746 l 0.122048,1.19607 h 0.04882 q 0.317325,-0.537011 0.817722,-0.927565 0.500396,-0.390553 1.183865,-0.390553 z"
         id="path285" />
      <path
         d="m 32.733863,39.429174 q 0,1.159456 -0.842131,1.806311 -0.842131,0.646854 -2.270092,0.646854 -0.732288,0 -1.354733,-0.109843 -0.622445,-0.109843 -1.037408,-0.30512 v -1.049613 q 0.439373,0.195277 1.086227,0.353939 0.659059,0.158663 1.354733,0.158663 0.976384,0 1.464576,-0.378349 0.500396,-0.378349 0.500396,-1.025203 0,-0.427168 -0.183072,-0.720083 -0.183072,-0.292915 -0.634649,-0.537011 -0.439373,-0.256301 -1.232685,-0.537012 -1.110637,-0.402758 -1.684262,-0.988588 -0.561421,-0.585831 -0.561421,-1.598829 0,-0.695674 0.353939,-1.183866 0.353939,-0.500397 0.976384,-0.768902 0.63465,-0.268506 1.452371,-0.268506 0.720083,0 1.318119,0.134253 0.598035,0.134253 1.086227,0.353939 l -0.341735,0.93977 q -0.451577,-0.195277 -0.988588,-0.32953 -0.524807,-0.134253 -1.098432,-0.134253 -0.817722,0 -1.232685,0.35394 -0.414963,0.341734 -0.414963,0.91536 0,0.439372 0.183072,0.732288 0.183072,0.292915 0.598035,0.524806 0.414963,0.231891 1.122841,0.500397 0.768903,0.28071 1.293709,0.61024 0.537011,0.317325 0.805517,0.768902 0.28071,0.451578 0.28071,1.135046 z"
         id="path289" />
      <path
         id="path291"
         d="m 35.418916,35.206314 q 0,0.488192 -0.06102,0.91536 h 0.07323 q 0.317325,-0.500397 0.854336,-0.756698 0.549216,-0.256301 1.183866,-0.256301 1.19607,0 1.794105,0.573626 0.598035,0.561421 0.598035,1.818515 v 4.259475 h -1.061817 v -4.186246 q 0,-1.574419 -1.464576,-1.574419 -1.098432,0 -1.513395,0.622445 -0.402759,0.61024 -0.402759,1.757491 v 3.380729 h -1.074027 v -9.275648 h 1.074022 z m 1.977178,-9.385496 q 0.183072,0 0.390554,0.02441 0.219686,0.0122 0.378348,0.04882 l -0.134252,0.988589 q -0.158663,-0.03661 -0.35394,-0.06102 -0.183072,-0.02441 -0.353939,-0.02441 -0.500397,0 -0.939769,0.28071 -0.439373,0.268506 -0.707879,0.768902 -0.256301,0.488192 -0.256301,1.147252 v 3.490572 h -1.074022 v -6.541772 h 0.878746 l 0.122048,1.19607 h 0.04882 q 0.317325,-0.537011 0.817721,-0.927565 0.500397,-0.390553 1.183866,-0.390553 z" />
      <path
         d="m 44.365036,35.108675 q 1.196071,0 1.769696,0.524807 0.573626,0.524806 0.573626,1.672057 v 4.454752 h -0.781107 l -0.207482,-0.927565 h -0.04882 q -0.427168,0.537012 -0.903155,0.793312 -0.463783,0.256301 -1.293709,0.256301 -0.89095,0 -1.476781,-0.463782 -0.58583,-0.475987 -0.58583,-1.476781 0,-0.976384 0.768902,-1.50119 0.768903,-0.537011 2.367731,-0.585831 l 1.110637,-0.03661 v -0.390554 q 0,-0.817721 -0.353939,-1.135046 -0.353939,-0.317325 -1.000794,-0.317325 -0.512601,0 -0.976384,0.158663 -0.463782,0.146457 -0.86654,0.341734 L 42.131557,35.6701 q 0.427168,-0.231891 1.012998,-0.390553 0.585831,-0.170868 1.22048,-0.170868 z m 0.317325,3.490573 q -1.22048,0.04882 -1.696467,0.390554 -0.463782,0.341734 -0.463782,0.964179 0,0.549216 0.329529,0.805517 0.341735,0.2563 0.866541,0.2563 0.829926,0 1.379142,-0.451577 0.549216,-0.463783 0.549216,-1.415757 v -0.58583 z"
         id="path293" />
      <path
         d="m 51.785563,35.096471 q 0.183072,0 0.390553,0.02441 0.219687,0.0122 0.378349,0.04882 l -0.134253,0.988589 q -0.158662,-0.03661 -0.353939,-0.06102 -0.183072,-0.02441 -0.353939,-0.02441 -0.500397,0 -0.93977,0.28071 -0.439372,0.268506 -0.707878,0.768902 -0.256301,0.488192 -0.256301,1.147252 v 3.490572 h -1.074022 v -6.541772 h 0.878746 l 0.122048,1.19607 h 0.04882 q 0.317325,-0.537011 0.817721,-0.927565 0.500397,-0.390553 1.183866,-0.390553 z"
         id="path295" />
    </g>
  </g>
</svg>
