<?xml version="1.0" ?><svg id="Layer_1" style="enable-background:new 0 0 96 96;" version="1.1" viewBox="0 0 96 96" xml:space="preserve" xmlns="http://www.w3.org/2000/svg" xmlns:xlink="http://www.w3.org/1999/xlink"><style type="text/css">
	.st0{fill:none;stroke:#010000;stroke-width:4;stroke-linecap:round;stroke-miterlimit:10;}
	.st1{fill:none;stroke:#010000;stroke-width:4;stroke-linecap:round;stroke-linejoin:round;stroke-miterlimit:10;}
	.st2{fill:none;stroke:#010000;stroke-width:4;stroke-linejoin:round;stroke-miterlimit:10;}
	.st3{fill:none;stroke:#010000;stroke-width:6;stroke-linecap:round;stroke-linejoin:round;stroke-miterlimit:10;}
	.st4{fill:#010000;}
	.st5{fill:none;stroke:#010000;stroke-width:3.8974;stroke-linejoin:round;stroke-miterlimit:10;}
	.st6{fill:none;stroke:#010000;stroke-width:2;stroke-linecap:round;stroke-linejoin:round;stroke-miterlimit:10;}
	.st7{fill:#010000;stroke:#010000;stroke-width:2;stroke-miterlimit:10;}
	.st8{opacity:0.75;}
	.st9{fill:none;stroke:#010000;stroke-width:2;stroke-linejoin:round;stroke-miterlimit:10;}
	.st10{fill:none;stroke:#010000;stroke-width:6;stroke-linejoin:round;stroke-miterlimit:10;}
	.st11{fill:none;stroke:#010000;stroke-width:3;stroke-linejoin:round;stroke-miterlimit:10;}
	.st12{fill:none;stroke:#010000;stroke-width:3.9497;stroke-linejoin:round;stroke-miterlimit:10;}
	.st13{fill:none;stroke:#010000;stroke-width:1.9008;stroke-linejoin:round;stroke-miterlimit:10;}
	.st14{fill:none;stroke:#010000;stroke-width:1.9935;stroke-linejoin:round;stroke-miterlimit:10;}
	.st15{fill:none;stroke:#010000;stroke-width:4;stroke-miterlimit:10;}
	.st16{fill:none;stroke:#010000;stroke-width:1.9048;stroke-linecap:round;stroke-linejoin:round;stroke-miterlimit:10;}
	.st17{fill:none;stroke:#010000;stroke-width:1.934;stroke-linecap:round;stroke-linejoin:round;stroke-miterlimit:10;}
	.st18{fill:none;stroke:#010000;stroke-width:1.9684;stroke-linecap:round;stroke-linejoin:round;stroke-miterlimit:10;}
	.st19{fill:none;stroke:#010000;stroke-width:1.9343;stroke-linecap:round;stroke-linejoin:round;stroke-miterlimit:10;}
</style><path class="st2" d="M57,6H22.8C20.4,6,18,8.2,18,10.6v77.2c0,2.4,2.4,4.2,4.8,4.2h51.9c2.4,0,4.3-1.8,4.3-4.2V30"/><g><path class="st1" d="M81.2,27c2.3,0,2.9-1.2,1.2-2.9L63.1,4.9c-1.6-1.6-3.1-1-3.1,1.3V23c0,2.3,2.1,4,4.5,4H81.2z"/></g><line class="st1" x1="27" x2="51" y1="18" y2="18"/><line class="st1" x1="26" x2="46" y1="35" y2="35"/><line class="st1" x1="52" x2="71" y1="35" y2="35"/><line class="st1" x1="26" x2="56" y1="41" y2="41"/><line class="st1" x1="62" x2="71" y1="41" y2="41"/><line class="st1" x1="26" x2="46" y1="47" y2="47"/><line class="st1" x1="52" x2="71" y1="47" y2="47"/><line class="st1" x1="26" x2="56" y1="53" y2="53"/><line class="st1" x1="62" x2="71" y1="53" y2="53"/><g><path class="st4" d="M26.6,78.4c0-0.5,0.1-0.9,0.4-1.2s0.7-0.4,1.2-0.4c0.5,0,0.9,0.1,1.2,0.4c0.3,0.3,0.4,0.7,0.4,1.2   c0,0.5-0.1,0.9-0.4,1.2c-0.3,0.3-0.7,0.4-1.2,0.4c-0.5,0-0.9-0.1-1.2-0.4C26.7,79.3,26.6,78.9,26.6,78.4z"/><path class="st4" d="M39.2,80l-0.6-2h-0.1c-0.5,1-1,1.2-1.5,1.4c-0.5,0.2-1.2,0.4-2,0.4c-1,0-1.8-0.3-2.4-0.8   c-0.6-0.6-0.9-1.4-0.9-2.5c0-1.1,0.4-1.9,1.2-2.5c0.8-0.5,1.8-0.8,3.4-0.9l1.7-0.1v-0.5c0-1.1-0.4-1.6-1.5-1.6   c-0.8,0-1.8,0.3-2.9,0.8l-0.9-1.9c1.2-0.6,2.6-1,4.1-1c1.4,0,2.4,0.3,3.2,0.9c0.8,0.6,1,1.6,1,2.8V80H39.2z M38,74.9l-0.9,0   c-0.8,0-1.4,0.2-1.8,0.5c-0.4,0.3-0.6,0.7-0.6,1.3c0,0.8,0.5,1.2,1.4,1.2c0.7,0,1-0.2,1.4-0.6c0.4-0.4,0.4-0.9,0.4-1.5V74.9z"/><path class="st4" d="M54,80h-3v-6.4c0-0.8-0.3-1.3-0.5-1.7c-0.3-0.4-0.7-0.6-1.3-0.6c-0.7,0-1.3,0.3-1.7,0.8   c-0.3,0.5-0.6,1.4-0.6,2.7V80h-3V69h2.4l0.4,2h0.2c0.3-1,0.7-1.1,1.2-1.4c0.5-0.3,1.1-0.3,1.8-0.3c1.6,0,2.7,0.7,3.2,1.7h0.3   c0.3-1,0.7-1.1,1.3-1.4c0.6-0.3,1.2-0.5,1.9-0.5c1.2,0,2,0.2,2.6,0.9c0.6,0.6,0.8,1.5,0.8,2.9V80h-3v-6.4c0-0.8,0-1.3-0.2-1.7   c-0.3-0.4-0.6-0.6-1.1-0.6c-0.7,0-1,0.3-1.4,0.8c-0.3,0.5-0.3,1.3-0.3,2.4V80z"/><path class="st4" d="M69,71h-3v9h-3v-9h-1v-1l1-0.8v-0.8c0-1.2,0.4-1.9,1-2.4c0.6-0.6,2.1-1.1,3.4-1.1c1,0,1.8,0.1,2.6,0.4   l-0.8,2.1c-0.6-0.2-1.1-0.3-1.6-0.3c-0.4,0-1,0.1-1.1,0.4c-0.2,0.2-0.5,0.6-0.5,0.9V69h3V71z"/></g></svg>