<?xml version="1.0" ?><svg id="Layer_1" style="enable-background:new 0 0 96 96;" version="1.1" viewBox="0 0 96 96" xml:space="preserve" xmlns="http://www.w3.org/2000/svg" xmlns:xlink="http://www.w3.org/1999/xlink"><style type="text/css">
	.st0{fill:none;stroke:#010000;stroke-width:4;stroke-linecap:round;stroke-miterlimit:10;}
	.st1{fill:none;stroke:#010000;stroke-width:4;stroke-linecap:round;stroke-linejoin:round;stroke-miterlimit:10;}
	.st2{fill:none;stroke:#010000;stroke-width:4;stroke-linejoin:round;stroke-miterlimit:10;}
	.st3{fill:none;stroke:#010000;stroke-width:6;stroke-linecap:round;stroke-linejoin:round;stroke-miterlimit:10;}
	.st4{fill:#010000;}
	.st5{fill:none;stroke:#010000;stroke-width:3.8974;stroke-linejoin:round;stroke-miterlimit:10;}
	.st6{fill:none;stroke:#010000;stroke-width:2;stroke-linecap:round;stroke-linejoin:round;stroke-miterlimit:10;}
	.st7{fill:#010000;stroke:#010000;stroke-width:2;stroke-miterlimit:10;}
	.st8{opacity:0.75;}
	.st9{fill:none;stroke:#010000;stroke-width:2;stroke-linejoin:round;stroke-miterlimit:10;}
	.st10{fill:none;stroke:#010000;stroke-width:6;stroke-linejoin:round;stroke-miterlimit:10;}
	.st11{fill:none;stroke:#010000;stroke-width:3;stroke-linejoin:round;stroke-miterlimit:10;}
	.st12{fill:none;stroke:#010000;stroke-width:3.9497;stroke-linejoin:round;stroke-miterlimit:10;}
	.st13{fill:none;stroke:#010000;stroke-width:1.9008;stroke-linejoin:round;stroke-miterlimit:10;}
	.st14{fill:none;stroke:#010000;stroke-width:1.9935;stroke-linejoin:round;stroke-miterlimit:10;}
	.st15{fill:none;stroke:#010000;stroke-width:4;stroke-miterlimit:10;}
	.st16{fill:none;stroke:#010000;stroke-width:1.9048;stroke-linecap:round;stroke-linejoin:round;stroke-miterlimit:10;}
	.st17{fill:none;stroke:#010000;stroke-width:1.934;stroke-linecap:round;stroke-linejoin:round;stroke-miterlimit:10;}
	.st18{fill:none;stroke:#010000;stroke-width:1.9684;stroke-linecap:round;stroke-linejoin:round;stroke-miterlimit:10;}
	.st19{fill:none;stroke:#010000;stroke-width:1.9343;stroke-linecap:round;stroke-linejoin:round;stroke-miterlimit:10;}
</style><path class="st2" d="M57,6H22.8C20.4,6,18,8.2,18,10.6v77.2c0,2.4,2.4,4.2,4.8,4.2h51.9c2.4,0,4.3-1.8,4.3-4.2V30"/><g><path class="st1" d="M81.2,27c2.3,0,2.9-1.2,1.2-2.9L63.1,4.9c-1.6-1.6-3.1-1-3.1,1.3V23c0,2.3,2.1,4,4.5,4H81.2z"/></g><line class="st1" x1="27" x2="51" y1="18" y2="18"/><line class="st1" x1="26" x2="46" y1="35" y2="35"/><line class="st1" x1="52" x2="71" y1="35" y2="35"/><line class="st1" x1="26" x2="56" y1="41" y2="41"/><line class="st1" x1="62" x2="71" y1="41" y2="41"/><line class="st1" x1="26" x2="46" y1="47" y2="47"/><line class="st1" x1="52" x2="71" y1="47" y2="47"/><line class="st1" x1="26" x2="56" y1="53" y2="53"/><line class="st1" x1="62" x2="71" y1="53" y2="53"/><g><path class="st4" d="M26.8,78.4c0-0.7,0.2-1.2,0.5-1.5c0.4-0.3,0.9-0.5,1.6-0.5c0.7,0,1.2,0.2,1.5,0.5c0.4,0.4,0.5,0.9,0.5,1.5   c0,0.6-0.2,1.1-0.6,1.5s-0.9,0.5-1.5,0.5c-0.7,0-1.2-0.2-1.6-0.5C27,79.5,26.8,79,26.8,78.4z"/><path class="st4" d="M45.7,73.4c0,2.2-0.6,3.9-1.7,5.1c-1.1,1.2-2.7,1.8-4.8,1.8c-1.3,0-2.4-0.3-3.4-0.8s-1.7-1.4-2.3-2.4   c-0.5-1.1-0.8-2.3-0.8-3.7c0-2.2,0.6-3.9,1.7-5.1c1.1-1.2,2.7-1.8,4.8-1.8c1.3,0,2.4,0.3,3.4,0.8c1,0.6,1.7,1.4,2.3,2.4   C45.4,70.8,45.7,72,45.7,73.4z M36.4,73.4c0,1.3,0.2,2.3,0.7,3c0.4,0.7,1.1,1,2.1,1c1,0,1.7-0.3,2.1-1c0.4-0.7,0.6-1.7,0.6-3   c0-1.3-0.2-2.3-0.6-3s-1.1-1-2.1-1c-1,0-1.7,0.3-2.1,1S36.4,72.1,36.4,73.4z"/><path class="st4" d="M55.1,66.3c1.6,0,2.8,0.7,3.7,2c0.9,1.2,1.3,3,1.3,5.1c0,2.2-0.5,3.9-1.4,5.2c-0.9,1.2-2.2,2-3.8,2   c-1.6,0-2.8-0.5-3.7-1.5h-0.3l-0.6,1H48V61h3v4.8c0,0.6,0.3,1.2,0.2,2.2h0.1C52.2,67,53.4,66.3,55.1,66.3z M53.9,69.4   c-0.9,0-1.7,0.3-2.1,0.8C51.4,70.8,51,71.7,51,73v0.4c0,1.4,0.4,2.5,0.8,3.1c0.4,0.6,1.2,0.9,2.1,0.9c0.8,0,1.4-0.3,1.8-1   c0.4-0.7,0.7-1.7,0.7-3c0-1.3-0.2-2.3-0.7-3C55.3,69.7,54.7,69.4,53.9,69.4z"/><path class="st4" d="M62.3,86c-0.9,0-2.3-0.1-2.3-0.3v-2.9c0,0.2,1,0.2,1.6,0.2c0.6,0,0.9-0.2,1.2-0.5C63,82.2,63,81.7,63,81V67h4   v14.6c0,1.4-0.4,2.5-1.2,3.3C64.9,85.6,63.8,86,62.3,86z M63,63.3c0-1.2,0.7-1.8,2-1.8c1.3,0,2,0.6,2,1.8c0,0.6-0.2,1-0.5,1.3   c-0.3,0.3-0.8,0.5-1.5,0.5C63.7,65.1,63,64.5,63,63.3z"/></g></svg>