<?xml version="1.0" ?><svg id="Layer_1" style="enable-background:new 0 0 96 96;" version="1.1" viewBox="0 0 96 96" xml:space="preserve" xmlns="http://www.w3.org/2000/svg" xmlns:xlink="http://www.w3.org/1999/xlink"><style type="text/css">
	.st0{fill:none;stroke:#010000;stroke-width:4;stroke-linecap:round;stroke-miterlimit:10;}
	.st1{fill:none;stroke:#010000;stroke-width:4;stroke-linecap:round;stroke-linejoin:round;stroke-miterlimit:10;}
	.st2{fill:none;stroke:#010000;stroke-width:4;stroke-linejoin:round;stroke-miterlimit:10;}
	.st3{fill:none;stroke:#010000;stroke-width:6;stroke-linecap:round;stroke-linejoin:round;stroke-miterlimit:10;}
	.st4{fill:#010000;}
	.st5{fill:none;stroke:#010000;stroke-width:3.8974;stroke-linejoin:round;stroke-miterlimit:10;}
	.st6{fill:none;stroke:#010000;stroke-width:2;stroke-linecap:round;stroke-linejoin:round;stroke-miterlimit:10;}
	.st7{fill:#010000;stroke:#010000;stroke-width:2;stroke-miterlimit:10;}
	.st8{opacity:0.75;}
	.st9{fill:none;stroke:#010000;stroke-width:2;stroke-linejoin:round;stroke-miterlimit:10;}
	.st10{fill:none;stroke:#010000;stroke-width:6;stroke-linejoin:round;stroke-miterlimit:10;}
	.st11{fill:none;stroke:#010000;stroke-width:3;stroke-linejoin:round;stroke-miterlimit:10;}
	.st12{fill:none;stroke:#010000;stroke-width:3.9497;stroke-linejoin:round;stroke-miterlimit:10;}
	.st13{fill:none;stroke:#010000;stroke-width:1.9008;stroke-linejoin:round;stroke-miterlimit:10;}
	.st14{fill:none;stroke:#010000;stroke-width:1.9935;stroke-linejoin:round;stroke-miterlimit:10;}
	.st15{fill:none;stroke:#010000;stroke-width:4;stroke-miterlimit:10;}
	.st16{fill:none;stroke:#010000;stroke-width:1.9048;stroke-linecap:round;stroke-linejoin:round;stroke-miterlimit:10;}
	.st17{fill:none;stroke:#010000;stroke-width:1.934;stroke-linecap:round;stroke-linejoin:round;stroke-miterlimit:10;}
	.st18{fill:none;stroke:#010000;stroke-width:1.9684;stroke-linecap:round;stroke-linejoin:round;stroke-miterlimit:10;}
	.st19{fill:none;stroke:#010000;stroke-width:1.9343;stroke-linecap:round;stroke-linejoin:round;stroke-miterlimit:10;}
</style><path class="st2" d="M57,6H22.8C20.4,6,18,8.2,18,10.6v77.2c0,2.4,2.4,4.2,4.8,4.2h51.9c2.4,0,4.3-1.8,4.3-4.2V30"/><g><path class="st1" d="M81.2,27c2.3,0,2.9-1.2,1.2-2.9L63.1,4.9c-1.6-1.6-3.1-1-3.1,1.3V23c0,2.3,2.1,4,4.5,4H81.2z"/></g><line class="st1" x1="27" x2="51" y1="18" y2="18"/><line class="st1" x1="26" x2="46" y1="35" y2="35"/><line class="st1" x1="52" x2="71" y1="35" y2="35"/><line class="st1" x1="26" x2="56" y1="41" y2="41"/><line class="st1" x1="62" x2="71" y1="41" y2="41"/><line class="st1" x1="26" x2="46" y1="47" y2="47"/><line class="st1" x1="52" x2="71" y1="47" y2="47"/><line class="st1" x1="26" x2="56" y1="53" y2="53"/><line class="st1" x1="62" x2="71" y1="53" y2="53"/><g><path class="st4" d="M27,79.1c0-0.8,0.2-1.4,0.6-1.8c0.4-0.4,1-0.6,1.9-0.6c0.8,0,1.4,0.2,1.8,0.6c0.4,0.4,0.6,1,0.6,1.8   c0,0.8-0.2,1.3-0.7,1.8c-0.4,0.4-1,0.6-1.8,0.6c-0.8,0-1.4-0.2-1.9-0.6C27.2,80.5,27,79.9,27,79.1z"/><path class="st4" d="M47,76.4c0,1.6-0.6,2.9-1.7,3.7c-1.1,0.9-2.8,1.3-5.1,1.3c-1.2,0-2.1-0.1-3-0.2C36.5,81,36,80.8,35,80.5v-3.6   c1,0.4,1.7,0.7,2.7,1c1,0.3,1.9,0.4,2.7,0.4c1.6,0,2.4-0.5,2.4-1.4c0-0.3-0.1-0.6-0.3-0.8c-0.2-0.2-0.6-0.5-1.1-0.7   c-0.5-0.3-1.2-0.6-2-0.9c-1.2-0.5-2.1-1-2.7-1.4c-0.6-0.4-1-0.9-1.3-1.5c-0.3-0.6-0.4-1.3-0.4-2.1c0-1.4,0.5-2.5,1.6-3.3   c1.1-0.8,2.6-1.2,4.7-1.2c1.9,0,3.8,0.4,5.6,1.3l-1.3,3.1c-0.8-0.3-1.5-0.6-2.2-0.8s-1.4-0.3-2.1-0.3c-1.3,0-1.9,0.3-1.9,1   c0,0.4,0.2,0.7,0.6,1c0.4,0.3,1.3,0.7,2.7,1.3c1.2,0.5,2.2,1,2.7,1.4c0.6,0.4,1,0.9,1.3,1.5C46.9,75,47,75.6,47,76.4z"/><path class="st4" d="M57.2,78c0.8,0,1.8-0.2,2.8-0.5v3.2c-1,0.5-2.5,0.7-4.1,0.7c-1.7,0-3-0.4-3.8-1.3c-0.8-0.9-1.2-2.2-1.2-3.9V68   h-2v-1.3l2.3-1.4l1.2-3.3H55v3h5v3h-5v8.2c0,0.6,0.3,1.1,0.7,1.4C56,77.8,56.6,78,57.2,78z"/><path class="st4" d="M67,81h-4V59h4V81z"/></g></svg>