<?xml version="1.0" ?><svg id="Layer_1" style="enable-background:new 0 0 96 96;" version="1.1" viewBox="0 0 96 96" xml:space="preserve" xmlns="http://www.w3.org/2000/svg" xmlns:xlink="http://www.w3.org/1999/xlink"><style type="text/css">
	.st0{fill:none;stroke:#010000;stroke-width:4;stroke-linecap:round;stroke-miterlimit:10;}
	.st1{fill:none;stroke:#010000;stroke-width:4;stroke-linecap:round;stroke-linejoin:round;stroke-miterlimit:10;}
	.st2{fill:none;stroke:#010000;stroke-width:4;stroke-linejoin:round;stroke-miterlimit:10;}
	.st3{fill:none;stroke:#010000;stroke-width:6;stroke-linecap:round;stroke-linejoin:round;stroke-miterlimit:10;}
	.st4{fill:#010000;}
	.st5{fill:none;stroke:#010000;stroke-width:3.8974;stroke-linejoin:round;stroke-miterlimit:10;}
	.st6{fill:none;stroke:#010000;stroke-width:2;stroke-linecap:round;stroke-linejoin:round;stroke-miterlimit:10;}
	.st7{fill:#010000;stroke:#010000;stroke-width:2;stroke-miterlimit:10;}
	.st8{opacity:0.75;}
	.st9{fill:none;stroke:#010000;stroke-width:2;stroke-linejoin:round;stroke-miterlimit:10;}
	.st10{fill:none;stroke:#010000;stroke-width:6;stroke-linejoin:round;stroke-miterlimit:10;}
	.st11{fill:none;stroke:#010000;stroke-width:3;stroke-linejoin:round;stroke-miterlimit:10;}
	.st12{fill:none;stroke:#010000;stroke-width:3.9497;stroke-linejoin:round;stroke-miterlimit:10;}
	.st13{fill:none;stroke:#010000;stroke-width:1.9008;stroke-linejoin:round;stroke-miterlimit:10;}
	.st14{fill:none;stroke:#010000;stroke-width:1.9935;stroke-linejoin:round;stroke-miterlimit:10;}
	.st15{fill:none;stroke:#010000;stroke-width:4;stroke-miterlimit:10;}
	.st16{fill:none;stroke:#010000;stroke-width:1.9048;stroke-linecap:round;stroke-linejoin:round;stroke-miterlimit:10;}
	.st17{fill:none;stroke:#010000;stroke-width:1.934;stroke-linecap:round;stroke-linejoin:round;stroke-miterlimit:10;}
	.st18{fill:none;stroke:#010000;stroke-width:1.9684;stroke-linecap:round;stroke-linejoin:round;stroke-miterlimit:10;}
	.st19{fill:none;stroke:#010000;stroke-width:1.9343;stroke-linecap:round;stroke-linejoin:round;stroke-miterlimit:10;}
</style><path class="st2" d="M57,6H22.8C20.4,6,18,8.2,18,10.6v77.2c0,2.4,2.4,4.2,4.8,4.2h51.9c2.4,0,4.3-1.8,4.3-4.2V30"/><g><path class="st1" d="M81.2,27c2.3,0,2.9-1.2,1.2-2.9L63.1,4.9c-1.6-1.6-3.1-1-3.1,1.3V23c0,2.3,2.1,4,4.5,4H81.2z"/></g><line class="st1" x1="27" x2="51" y1="18" y2="18"/><line class="st1" x1="26" x2="46" y1="35" y2="35"/><line class="st1" x1="52" x2="71" y1="35" y2="35"/><line class="st1" x1="26" x2="56" y1="41" y2="41"/><line class="st1" x1="62" x2="71" y1="41" y2="41"/><line class="st1" x1="26" x2="46" y1="47" y2="47"/><line class="st1" x1="52" x2="71" y1="47" y2="47"/><line class="st1" x1="26" x2="56" y1="53" y2="53"/><line class="st1" x1="62" x2="71" y1="53" y2="53"/><g><path class="st4" d="M26,78.8c0-0.7,0.2-1.2,0.5-1.5c0.4-0.3,0.9-0.5,1.5-0.5c0.7,0,1.2,0.2,1.5,0.5c0.4,0.3,0.5,0.8,0.5,1.5   c0,0.6-0.2,1.1-0.5,1.5c-0.4,0.4-0.9,0.5-1.5,0.5c-0.7,0-1.2-0.2-1.5-0.5C26.2,79.9,26,79.4,26,78.8z"/><path class="st4" d="M37.6,80.8c-1.5,0-2.8-0.7-3.7-1.9c-0.9-1.2-1.3-2.9-1.3-5c0-2.2,0.4-3.9,1.4-5.1c0.9-1.2,2.1-1.8,3.7-1.8   c1.7,0,2.9,0.9,3.8,1.9h0.1c-0.2-1-0.6-1.9-0.6-2.6V62h4v18h-2.8l-0.7-1h-0.2C40.5,80,39.2,80.8,37.6,80.8z M38.8,77.9   c0.9,0,1.8-0.3,2.2-0.8c0.4-0.5,0.9-1.4,0.9-2.7v-0.4c0-1.4-0.4-2.4-0.9-3c-0.4-0.6-1.3-0.9-2.2-0.9c-0.8,0-1.5,0.3-1.9,1   c-0.4,0.7-0.7,1.7-0.7,3c0,1.3,0.2,2.3,0.7,2.9C37.4,77.5,38,77.9,38.8,77.9z"/><path class="st4" d="M51.4,73.4L47.1,67h4.1l2.6,4.2l2.6-4.2h4.1l-4.3,6.4l4.5,6.6h-4.1l-2.8-4.5L51,80h-4.1L51.4,73.4z"/><path class="st4" d="M70,70h-3v10h-4V70h-2v-1.7l2-1v-1c0-1.5,0.5-2.6,1.2-3.3c0.7-0.7,2-1,3.6-1c1.2,0,2.4,0.2,3.3,0.6l-0.9,2.6   c-0.7-0.2-1.4-0.3-2-0.3c-0.5,0-0.8,0.2-1,0.5C67,65.6,67,66,67,66.5V67h3V70z"/></g></svg>